<?xml version="1.0" standalone="no"?>
<!DOCTYPE svg PUBLIC "-//W3C//DTD SVG 20010904//EN"
 "http://www.w3.org/TR/2001/REC-SVG-20010904/DTD/svg10.dtd">
<svg version="1.0" xmlns="http://www.w3.org/2000/svg"
 width="260.000000pt" height="260.000000pt" viewBox="0 0 260.000000 260.000000"
 preserveAspectRatio="xMidYMid meet">
<metadata>
Created by potrace 1.11, written by Peter Selinger 2001-2013
</metadata>
<g transform="translate(0.000000,260.000000) scale(0.100000,-0.100000)"
fill="#000000" stroke="none">
<path d="M1272 2469 c-24 -4 -87 -10 -140 -12 -70 -3 -111 -10 -144 -25 -26
-11 -48 -18 -51 -16 -9 9 -192 -69 -202 -87 -3 -4 -20 -15 -38 -24 -18 -8 -41
-28 -52 -45 -11 -16 -28 -30 -39 -30 -10 0 -49 -33 -87 -72 -43 -45 -76 -72
-87 -70 -16 2 -16 2 1 -8 13 -9 15 -15 7 -30 -16 -30 -12 -35 13 -13 12 11 32
23 45 26 21 5 20 2 -10 -36 -18 -23 -36 -43 -40 -45 -5 -2 -8 -12 -8 -23 0
-10 -6 -19 -14 -19 -8 0 -21 -9 -28 -19 -8 -11 -26 -23 -41 -26 -21 -6 -26
-12 -22 -25 6 -19 -19 -94 -40 -120 -13 -16 -28 -63 -30 -95 -1 -11 -8 -49
-17 -85 -20 -79 -47 -239 -51 -297 -2 -24 -6 -46 -10 -49 -3 -4 -4 -19 -2 -35
3 -16 7 -43 10 -61 5 -30 4 -30 -13 -15 -37 34 -40 18 -16 -88 40 -177 114
-332 205 -430 25 -27 59 -70 74 -94 36 -59 100 -118 158 -147 26 -13 47 -22
47 -18 0 3 -20 26 -45 51 -56 55 -58 72 -9 68 20 -1 39 -7 43 -12 18 -29 161
-103 256 -133 22 -7 42 -16 45 -20 3 -4 37 -20 75 -35 61 -25 86 -29 185 -31
63 -1 142 2 175 8 33 7 103 12 155 13 85 1 104 5 185 39 50 21 102 44 118 51
15 8 25 9 22 4 -4 -5 -2 -9 3 -9 10 0 29 19 33 35 2 6 21 22 43 36 45 29 126
104 126 116 0 5 11 25 25 45 21 31 25 48 25 112 0 41 5 78 10 81 6 4 7 13 1
23 -14 29 -1 88 22 101 22 12 57 71 57 95 0 7 18 28 40 47 22 19 40 40 40 47
0 6 9 21 19 31 11 11 21 30 23 43 2 13 7 26 11 29 14 10 18 101 5 138 -6 20
-12 98 -13 176 -3 187 -22 256 -99 355 -38 49 -38 60 2 60 27 0 27 1 -15 40
-30 28 -51 40 -72 40 -35 0 -48 15 -31 35 8 10 9 19 3 28 -6 6 -13 22 -16 35
-9 36 18 26 47 -19 15 -22 42 -49 59 -59 18 -11 40 -33 50 -49 21 -36 57 -60
57 -38 0 8 -17 30 -39 50 -21 19 -48 55 -60 79 -12 26 -41 59 -71 82 -28 21
-55 46 -60 56 -5 9 -28 29 -52 45 -24 16 -50 35 -58 42 -79 69 -245 149 -339
164 -31 4 -92 15 -136 22 -120 22 -175 26 -223 16z m222 -71 c13 -7 21 -6 26
2 6 10 18 9 56 -4 26 -9 64 -16 83 -16 20 0 52 -9 71 -19 19 -11 52 -27 73
-36 20 -10 37 -22 37 -28 0 -6 3 -8 6 -5 3 3 16 -5 29 -18 13 -13 30 -24 37
-24 7 0 31 -21 53 -46 22 -25 53 -53 69 -61 27 -14 27 -16 12 -31 -13 -14 -18
-14 -25 -4 -6 10 -10 10 -21 -3 -7 -9 -19 -14 -27 -11 -7 3 -13 0 -13 -7 0 -7
-18 8 -40 33 -22 25 -40 40 -40 33 0 -6 5 -15 10 -18 22 -14 43 -73 46 -130 1
-33 4 -67 5 -75 1 -8 1 -24 0 -35 -3 -17 -4 -17 -10 4 -8 28 -50 44 -93 37
-26 -5 -28 -3 -30 32 -5 110 -6 115 -23 108 -12 -4 -14 0 -10 17 4 13 -1 30
-10 42 -16 20 -16 20 -5 -2 8 -18 7 -24 -9 -33 -14 -7 -20 -7 -23 1 -2 7 -27
14 -56 17 -49 4 -57 11 -50 40 1 4 -11 9 -28 12 -21 4 -29 11 -27 25 2 25 -20
40 -95 65 -60 20 -89 19 -77 -1 4 -5 -3 -9 -15 -9 -12 0 -18 -4 -15 -10 8 -13
-11 -13 -34 0 -39 20 -83 21 -121 1 -24 -12 -41 -16 -47 -10 -5 5 -23 12 -39
15 -16 3 -31 9 -34 13 -3 4 -19 13 -37 19 -26 9 -38 7 -69 -9 -41 -20 -99 -25
-109 -9 -4 6 -23 7 -46 4 -46 -8 -52 7 -11 26 53 24 83 30 102 17 15 -9 29 -8
62 1 92 27 124 35 148 34 l25 -1 -23 10 c-32 12 -20 27 19 21 22 -3 27 -7 18
-14 -9 -5 1 -6 26 -2 22 3 51 17 65 29 14 13 34 25 45 27 35 6 169 -4 189 -14z
m-449 -18 c8 -13 -5 -13 -25 0 -13 8 -13 10 2 10 9 0 20 -4 23 -10z m-52 -7
c-7 -2 -19 -2 -25 0 -7 3 -2 5 12 5 14 0 19 -2 13 -5z m300 -140 c-13 -2 -33
-2 -45 0 -13 2 -3 4 22 4 25 0 35 -2 23 -4z m69 -26 c16 -6 29 -16 29 -22 1
-5 2 -14 4 -20 1 -5 3 -17 3 -27 2 -11 8 -14 21 -11 15 4 27 -6 48 -36 15 -22
32 -40 36 -41 5 0 5 6 1 13 -6 9 -4 9 7 1 75 -56 114 -95 134 -135 17 -33 33
-50 55 -57 38 -14 39 -26 1 -17 -16 3 -46 2 -65 -4 -21 -5 -34 -6 -31 0 4 5
12 9 20 9 8 0 16 4 19 9 7 11 -13 71 -24 71 -5 0 -16 7 -24 16 -10 10 -16 11
-16 3 0 -8 -12 -10 -41 -5 -23 4 -38 3 -35 -3 3 -5 -2 -15 -11 -22 -15 -12
-16 -12 -10 4 3 9 2 17 -3 17 -6 0 -10 -9 -10 -19 0 -31 -17 -33 -38 -6 -22
28 -32 32 -32 11 0 -29 -62 -31 -73 -2 -4 9 -17 12 -36 10 -21 -2 -30 1 -28 9
3 15 76 27 98 16 18 -9 47 5 30 15 -18 11 -13 29 7 22 11 -4 8 1 -8 15 -14 11
-19 18 -12 14 6 -3 12 -2 12 3 0 5 3 25 7 43 6 31 5 33 -10 20 -19 -15 -23
-36 -5 -25 6 4 8 3 4 -4 -3 -6 -19 -9 -34 -6 -15 2 -34 5 -42 6 -50 8 -152
-18 -234 -58 -49 -24 -95 -44 -102 -44 -25 0 -21 29 8 56 34 33 80 99 88 128
12 43 227 82 292 53z m-698 -30 c-11 -6 -22 -15 -25 -20 -4 -5 -9 -5 -13 1 -8
13 33 44 47 35 5 -3 1 -10 -9 -16z m1356 -112 c0 -5 -5 -3 -10 5 -8 12 -10 12
-10 1 0 -8 -2 -12 -5 -9 -3 3 -2 13 1 22 5 14 9 15 15 4 5 -7 9 -17 9 -23z
m-255 -15 c3 -5 -1 -10 -10 -10 -9 0 -13 5 -10 10 3 6 8 10 10 10 2 0 7 -4 10
-10z m247 -59 c-5 -3 -12 -18 -16 -33 -5 -23 -4 -27 11 -21 15 5 14 3 -2 -10
-29 -24 -35 -21 -29 16 4 21 3 28 -4 19 -7 -10 -11 -2 -16 26 -10 64 0 75 35
39 17 -16 26 -33 21 -36z m38 29 c0 -5 -4 -10 -10 -10 -5 0 -10 5 -10 10 0 6
5 10 10 10 6 0 10 -4 10 -10z m-505 -120 c13 0 27 5 30 10 6 10 45 15 45 6 0
-2 3 -12 6 -21 5 -12 2 -16 -12 -13 -10 2 -22 -6 -28 -17 -6 -11 -23 -21 -38
-23 -37 -4 -53 29 -38 78 1 3 4 -1 7 -7 2 -7 15 -13 28 -13z m-119 -46 c-3 -8
-11 -14 -18 -14 -9 0 -9 3 0 12 7 7 13 23 13 38 2 24 2 24 6 2 3 -13 2 -30 -1
-38z m-146 31 c-6 -8 -9 -19 -5 -25 7 -12 3 -12 -19 -4 -13 5 -12 9 7 25 27
22 34 24 17 4z m784 -52 c-4 -16 -12 -19 -35 -17 -32 4 -74 23 -51 24 7 0 10
5 7 10 -3 6 1 10 11 10 13 0 14 -3 4 -15 -10 -12 -10 -15 4 -15 9 0 16 5 16
11 0 6 9 8 23 4 21 -6 21 -5 4 8 -13 11 -15 16 -5 20 17 6 28 -15 22 -40z
m-684 17 c0 -5 -7 -10 -16 -10 -8 0 -12 5 -9 10 3 6 10 10 16 10 5 0 9 -4 9
-10z m0 -30 c0 -5 -2 -10 -4 -10 -3 0 -8 5 -11 10 -3 6 -1 10 4 10 6 0 11 -4
11 -10z m260 0 c0 -5 -4 -10 -10 -10 -5 0 -10 5 -10 10 0 6 5 10 10 10 6 0 10
-4 10 -10z m-335 -10 c-3 -5 -11 -10 -16 -10 -6 0 -7 5 -4 10 3 6 11 10 16 10
6 0 7 -4 4 -10z m25 -102 c0 -12 -3 -18 -7 -14 -11 10 -12 36 -2 36 5 0 9 -10
9 -22z m520 -43 c-7 -9 -15 -13 -17 -11 -7 7 7 26 19 26 6 0 6 -6 -2 -15z
m-310 -245 c13 -25 -5 -66 -33 -74 -12 -3 -23 -3 -25 -1 -8 8 -9 71 -1 93 7
19 12 21 29 12 11 -6 24 -19 30 -30z m-69 -112 c-14 -22 -15 -78 -1 -78 6 0
10 -7 10 -15 0 -8 -5 -15 -11 -15 -6 0 -9 -7 -5 -15 9 -23 -6 -18 -29 11 -12
15 -26 23 -36 19 -13 -5 -49 -97 -49 -125 0 -32 104 16 113 51 7 25 27 16 27
-11 0 -17 19 -30 43 -30 9 0 9 2 1 8 -23 15 -24 47 -2 82 14 23 23 30 26 21 3
-9 9 -4 18 15 7 16 13 24 13 17 1 -7 7 -10 15 -7 9 4 16 -3 19 -18 4 -21 4
-21 6 3 0 15 8 30 17 33 13 5 14 2 9 -11 -8 -18 -13 -48 -14 -90 -1 -13 -15
-35 -31 -50 -28 -24 -29 -28 -14 -44 14 -16 14 -18 -6 -24 -12 -4 -40 -25 -62
-46 -22 -21 -44 -39 -48 -39 -5 0 -8 15 -7 33 2 29 5 32 32 30 17 0 24 1 18 4
-20 7 -15 26 5 19 12 -4 10 0 -6 14 -14 12 -21 24 -16 32 4 7 -4 4 -17 -8 -35
-31 -57 -36 -69 -16 -10 15 -11 15 -6 0 2 -9 -2 -19 -10 -22 -21 -8 -17 -25 8
-35 20 -7 18 -10 -25 -40 -26 -18 -47 -40 -47 -49 0 -18 -91 -112 -108 -112
-15 0 -21 52 -9 71 15 24 1 36 -23 21 -24 -15 -31 -4 -28 43 3 34 5 36 30 31
30 -6 49 10 24 20 -9 3 -13 10 -10 15 3 5 -2 9 -11 9 -8 0 -20 12 -25 26 -9
21 -7 29 7 40 10 7 21 14 24 14 3 0 9 23 12 51 7 61 7 59 49 68 25 5 34 13 36
31 4 30 26 56 51 63 14 3 17 0 14 -14 -3 -11 0 -19 6 -19 6 0 12 7 12 15 1 8
2 20 3 25 0 6 15 23 31 39 l30 28 14 -25 c10 -20 11 -30 2 -44z m-266 -188
c-5 -17 -9 -19 -21 -9 -12 10 -12 13 3 24 22 16 27 13 18 -15z m450 -39 c-15
-30 -35 -42 -35 -20 0 15 44 68 48 58 2 -4 -4 -21 -13 -38z"/>
<path d="M1485 1990 c27 -12 43 -12 25 0 -8 5 -22 9 -30 9 -10 0 -8 -3 5 -9z"/>
<path d="M1430 1279 c0 -11 5 -17 10 -14 6 3 10 13 10 21 0 8 -4 14 -10 14 -5
0 -10 -9 -10 -21z"/>
<path d="M1250 939 c-8 -14 -9 -24 -2 -31 14 -14 32 -1 32 22 0 28 -17 33 -30
9z"/>
<path d="M395 2001 c3 -5 -1 -11 -7 -14 -7 -2 -10 -8 -5 -13 4 -4 14 -1 23 8
14 14 14 16 -1 22 -9 3 -14 2 -10 -3z"/>
<path d="M222 1758 c-28 -62 -35 -88 -23 -88 15 0 40 53 46 94 2 20 3 36 1 36
-2 0 -13 -19 -24 -42z"/>
<path d="M2216 912 c-3 -6 -1 -14 5 -17 15 -10 25 3 12 16 -7 7 -13 7 -17 1z"/>
</g>
</svg>
